<svg xmlns="http://www.w3.org/2000/svg" viewBox="0 0 251.44 249.42"><defs><style>.cls-1{fill:#67c2b9;}</style></defs><g id="Layer_2" data-name="Layer 2"><g id="Layer_1-2" data-name="Layer 1"><path class="cls-1" d="M188.36,173.64h0a90.37,90.37,0,0,0-2.43-23.46,23.74,23.74,0,0,0-4.29-9.28c-2.18-2.71-6.11-5.25-9.48-3-2.78,1.89-4.33,5.61-5,8.8a38.08,38.08,0,0,0-.42,10.17c.52,8,1.27,15.91,1.65,23.89q.3,6.27.34,12.55a21.76,21.76,0,0,1-1,7.34,8.52,8.52,0,0,1-1.39,2.71,2.27,2.27,0,0,1-.76.65c.18-.07-.54.12-.37.1,0,0-.59,0-.8,0a6.34,6.34,0,0,1-4.59-3.34c.29.63-.09-.31-.16-.54-.12-.41-.22-.82-.32-1.24s-.17-.85-.24-1.27c0-.11-.1-.69-.07-.47s-.06-.48-.08-.63c-.26-2.3-.35-4.63-.41-6.94-.13-5.43,0-10.86-.15-16.29-.11-4.65-.22-9.55-1.53-14.05a34.44,34.44,0,0,0-8.51-14.72c-4.13-4-10.06-6.81-15.92-6.54-9.35.43-5.62,13.76-3.37,19,1.5,3.47,3.42,6.73,4.92,10.2a69.13,69.13,0,0,1,3.45,10.42,112,112,0,0,1,2.93,22.11c.37,8,.33,16.07.94,24.07.46,6,2.72,12.32,7.52,16.16,5.44,4.34,12.63,4.21,18.56.87a26.92,26.92,0,0,0,7.44-6.71,47,47,0,0,0,5.88-8.94c3-6.13,4.34-13.14,5.36-19.84a203.24,203.24,0,0,0,1.82-20.61c.17-3.72.32-7.44.48-11.16"/><path class="cls-1" d="M110.34,94c-.36-2.17-.71-4.34-.9-6.53a296.17,296.17,0,0,0-5.09-33.9c-1.16-5.61-2.41-11.19-3.65-16.78s-2.36-11.56-5.39-16.61c-2.65-4.43-7.06-8.26-12.3-9.07A14.7,14.7,0,0,0,69.7,16.3a23.33,23.33,0,0,0-5.46,14.81C64,37.46,65.61,43.7,66.41,50c1.59,12.56,1.09,25.26.21,37.85-.44,6.35-1,12.68-1.42,19-.22,3.25-.41,6.5-.55,9.76A83.89,83.89,0,0,0,64.5,125c.28,4.54,2.28,10.16,7.73,10.13,5.81,0,9.06-6.51,10.68-11.21,1.77-5.14,2.19-10.65,2.72-16,.25-2.6.52-5.2,1-7.78a9.77,9.77,0,0,1,.81-2.91c.24-.43.33-.66.65-.49.83.42,1.37,1.89,1.71,2.67A26.62,26.62,0,0,1,91,103c.68,2.47,1.16,5,1.92,7.44,1.43,4.66,4.7,11.29,10.57,10.71,5.64-.56,7.83-7,8.25-11.79C112.17,104.22,111.16,99,110.34,94ZM94.73,76.45c-.64,3-2.89,5.51-6.15,5.22-2.71-.24-5.79-1.47-7.37-3.76-1.46-2.13-1.49-4.89-1.6-7.36-.25-6-.57-12.17.19-18.11.33-2.55.8-6.45,3.73-7.33,3.38-1,4.93,3.22,5.84,5.63,1,2.62,1.59,5.38,2.35,8.07.71,2.52,1.42,5,2,7.59C94.42,69.74,95.46,73,94.73,76.45Z"/><path class="cls-1" d="M177,31.73a25.1,25.1,0,0,0-1.87-7.23c-2.16-5-6.19-8.82-10.47-12a62,62,0,0,0-18.86-9.82A56.6,56.6,0,0,0,124.7.17c-6.36.53-13.35,2.27-18,6.94a15.2,15.2,0,0,0-4.28,9.42c-.38,3.89.55,7.85,1.41,11.62,1.87,8.11,4.25,16.08,5.51,24.32,2.22,14.51,2.91,29.18,4.26,43.78.3,3.21.64,6.41,1,9.6a98.89,98.89,0,0,1,.36,11.29c0,3-.19,6.26.59,9.2a11.35,11.35,0,0,0,6.41,7.48,7.39,7.39,0,0,0,9-2.8c3.36-4.91,1-11.57,2.53-16.85.21-.77.62-1.79,1.55-1.47a7.3,7.3,0,0,1,3,2.82c1.63,2.6,2.69,5.51,4.19,8.18,1.63,2.91,4.15,5.92,7.3,7.18a9.49,9.49,0,0,0,9.41-1.8c6.25-5,4.52-14,1.06-20.06-3.23-5.69-8.07-10.21-12.28-15.14-3.87-4.51-7.14-9.67-7.33-15.78a22.44,22.44,0,0,1,5.45-15.38c4.29-4.85,10.63-6.74,16.36-9.31a33.54,33.54,0,0,0,8.59-5.09,19.75,19.75,0,0,0,5.75-8.63A19.76,19.76,0,0,0,177,31.73Zm-27,2.18c-.23,2.58-2.23,4.33-4.23,5.71a23.31,23.31,0,0,1-6,3.09c-4.18,1.35-9.87.77-12.15-3.5a24.87,24.87,0,0,1-2.26-6.38,11.42,11.42,0,0,1,.6-7.32,6.23,6.23,0,0,1,2.28-2.79,6.34,6.34,0,0,1,4.31-.41,27.05,27.05,0,0,1,7.11,2.32C143.33,26.49,150.44,28.5,150,33.91Z"/><path class="cls-1" d="M132.63,176a106.35,106.35,0,0,0-5.63-14.4c-2.12-4.72-4.17-9.48-6.38-14.16-3.81-8-9.19-16.24-18.34-18.58a23.91,23.91,0,0,0-24.5,8.64,27.5,27.5,0,0,0-5.36,12.29c-.85,5.2-.14,10.26,1.14,15.33,2.71,10.77,5.77,21.44,7.62,32.4a119.82,119.82,0,0,1,1.69,16.26c.09,2.76,0,5.53-.09,8.29a36.52,36.52,0,0,0,.24,7.89c.85,4.92,4.25,8.65,8,11.74a33.51,33.51,0,0,0,13,7,22.89,22.89,0,0,0,13.75-.62,21.24,21.24,0,0,0,10.72-9.76,62,62,0,0,0,8.16-25.62c.18-2.34.24-4.68.24-7A128.27,128.27,0,0,0,132.63,176Zm-14.94,30.91a21.57,21.57,0,0,1-1.15,6.77,9.38,9.38,0,0,1-4.07,5.12,7.35,7.35,0,0,1-7-.09c-4.77-2.57-5.37-8.34-5.68-13.17-.33-5.06-.52-10.1-1.31-15.11a95.86,95.86,0,0,0-3.86-15.49c-1.66-5-3.21-10.09-2.91-15.38a10.33,10.33,0,0,1,2.67-6.85,7.6,7.6,0,0,1,4.8-2.44c2.72-.13,4.91,2.16,6.49,4.12a22.79,22.79,0,0,1,3.84,7l-.25-.6a133.23,133.23,0,0,1,6.23,18.09,79.83,79.83,0,0,1,2.45,19.46C117.94,201.13,117.85,204,117.69,206.86Z"/><path class="cls-1" d="M243.91,143.66a14.8,14.8,0,0,0-8.58-8.93c-3.85-1.51-8.56-1.41-12.63-1.09A32.89,32.89,0,0,0,216,134.9c-7.22,2.2-17,1.25-22,7.91-2.43,3.22-2.38,7.34-2.25,11.19.19,5.49,1,10.94,1.47,16.43a151.52,151.52,0,0,1-1,32.42c-.71,5-2.43,10.51-1,15.55,1.1,4,4.93,7.61,9.26,7.31,5.16-.35,7.34-5.66,8.53-10a43.41,43.41,0,0,0,1.15-7.62c.24-2.7.62-5.4.89-8.1a23,23,0,0,1,1-5.94,4.33,4.33,0,0,1,.78-1.39c.1-.09.05-.09.13-.13l.07,0a1.84,1.84,0,0,1,.33,0,2.61,2.61,0,0,1,.77.32c-.08,0,.43.45.2.13a6.23,6.23,0,0,1,.88,1.87,18,18,0,0,0,2.34,4.91,7.05,7.05,0,0,0,11.83-.63,14.24,14.24,0,0,0,1.35-7.34,20.48,20.48,0,0,0-1.88-7.53c-1.74-3.85-4.88-7.61-4.53-12.07s5.32-4.85,8.53-6.35C241,162,247.13,152.78,243.91,143.66ZM223.28,156.3a24.42,24.42,0,0,1-4.79,4.79,14.44,14.44,0,0,1-5.38,2.73,5.87,5.87,0,0,1-6.42-2.47,8.15,8.15,0,0,1-.87-5.75,11,11,0,0,1,2.69-5,8.22,8.22,0,0,1,4.46-2.74,22.26,22.26,0,0,1,8.75-.46,4.33,4.33,0,0,1,3.51,2.79C225.91,152.36,224.55,154.64,223.28,156.3Z"/><path class="cls-1" d="M199.71,87c.29,7.72-3.26,14.87-4.46,22.38-1.06,6.74-.29,14.77,5.41,19.37,5.21,4.2,13.53,4.06,17.34-1.94,1.76-2.78,2.05-6.27,1.91-9.48-.16-3.67-.72-7.28-.63-11a46.13,46.13,0,0,1,.48-5.75c.18-1.19.26-2.91,1.16-3.78-.24.23-.12,0,.2,0s-.14,0,.33-.06a10,10,0,0,1,2.05,0,11.38,11.38,0,0,1,2.93.79,4.3,4.3,0,0,1,.74.45c-.3-.25,0,0,0,0a9.92,9.92,0,0,1,1.15,2,16.46,16.46,0,0,1,1,4.43c.38,3.5.61,6.93,1.28,10.39s1.24,7.3,3.24,10.41a11.58,11.58,0,0,0,8.35,5.37,8.09,8.09,0,0,0,7.87-4.25c1.47-2.74,1.6-6,1.3-9-.39-4-1.11-7.92-1.69-11.87s-1.18-8.18-1.78-12.27a175.38,175.38,0,0,0-4.34-22.26,80.58,80.58,0,0,0-3.83-10.66c-1.4-3.18-3-6.73-5.5-9.19s-5.43-2.83-8.65-2.48c-2.72.29-5.92,1.76-5.82,5,.07,2.13,1.17,4.23,2,6.15.45,1.09.9,2.18,1.28,3.3.17.53.34,1.07.47,1.61.05.23.1.46.14.69-.08-.47,0,.1,0,.28s0,.7,0,.32-.13.23,0,.1a4.52,4.52,0,0,1-.89,1.07,2.24,2.24,0,0,1-1.23.48,6.37,6.37,0,0,1-.77,0c-2.72-.87-4-4.67-5.06-7-5.14-11.6-6.94-25.2-16.31-34.51-2.45-2.44-5.73-4.69-9.34-4.62s-6.39,2.56-7.55,5.91c-2.06,6,1,12.75,4.21,17.7,3.47,5.29,7.93,9.92,10.83,15.58s2.67,12.41,2.43,18.59c-.09,2.61-.27,5.24-.13,7.85"/><path class="cls-1" d="M23.42,50.7c-6.7,9.63-10.77,20.79-14,32-1.71,6-3.54,11.94-4.35,18.1a41.09,41.09,0,0,0-.17,9.47,19.34,19.34,0,0,0,2.31,8.22c3,4.9,9.25,6.76,14.44,8.28a73.66,73.66,0,0,0,18.05,2.87c5.11.17,11.8.38,15.38-4s2.4-10.15,1.21-15.1a21.15,21.15,0,0,0-2.78-7.08,13,13,0,0,0-6.42-4.79c-2.37-.88-4.94-1.18-7.24-2.21A9.22,9.22,0,0,1,35.22,92a6.77,6.77,0,0,1,.06-5.75c1-2.08,3.07-3,5.27-3.37,4.66-.73,9.36.48,13.91-1.21s8.31-6.1,6.48-11.25c-2-5.64-7.79-7.79-13.29-8.21-1.35-.1-2.72-.13-4.07-.18a17.13,17.13,0,0,1-4-.39c-2.05-.62.11-2.61,1.14-3.17a19.22,19.22,0,0,1,8-2c2.64-.16,5.32.25,7.94-.19,6.65-1.11,6.69-8.58,5.8-13.83a12.32,12.32,0,0,0-8.87-10A17.41,17.41,0,0,0,40.63,34a45.06,45.06,0,0,0-6.45,4.53,49.17,49.17,0,0,0-6,5.68,37.94,37.94,0,0,0-4.72,6.53"/><path class="cls-1" d="M73.12,187.88c-2.71-14.16-7.2-28-12-41.57-1.81-5.11-4.43-10.62-9.87-12.6a7.93,7.93,0,0,0-9,2.21c-2,2.55-2.52,6-2.55,9.17s.77,6.19,1.35,9.31a8.09,8.09,0,0,1,.11,3A2,2,0,0,1,39.67,159a6.45,6.45,0,0,1-2.82.21c-1.12-.2-1.63-.4-2.05-1.38a15.87,15.87,0,0,1-.75-3.22,16.66,16.66,0,0,0-1.53-4.2,50.88,50.88,0,0,0-11.88-15.52c-4.53-4-11.56-7.34-16.93-2.87s-4,12.47-1.91,18.1c2.54,6.95,5.66,13.75,8.74,20.48,3,6.51,6.12,13,9.43,19.33,2.92,5.61,6.11,11.16,10.44,15.82,2.18,2.34,4.89,5.08,8.09,5.89,3.55.9,6.48-1.29,8.11-4.29,1.32-2.42,2.49-6,1.63-8.75a41.87,41.87,0,0,0-3.09-6.22,17.55,17.55,0,0,1-1.26-3c-.07-.23-.28-1.2-.26-1-.05-.55-.05-.54.32-1A3.85,3.85,0,0,1,45.83,186c-.48.13.69,0,.67,0,.36,0,.73,0,1.09,0,.9.05,0,0,.45,0,.13,0,.82.2.65.13,2.1.87,2.5,4.55,2.92,6.68.44,2.29,1,4.55,1.64,6.81,1.33,5,2.88,10,3.92,15.1,1.17,5.73,2.67,12.31,9.09,14.16a7.91,7.91,0,0,0,8.19-2.11c2.14-2.45,2.52-5.92,2.82-9,.65-6.78-.68-13.47-2.15-20.05-.73-3.26-1.46-6.52-2-9.81"/><path class="cls-1" d="M165.61,56.79c-6.58,3-13.54,5.6-17.77,11.83-3.76,5.52-4,13.22.9,18.18a11.36,11.36,0,0,0,4,2.62,21.68,21.68,0,0,0,5.06,1,5.61,5.61,0,0,1,3.62,1.46,9,9,0,0,1,1.67,3.72c2.06,7.62,2.87,15.41,3.92,23.21.49,3.67,1.62,7.32,4.65,9.7a8.07,8.07,0,0,0,9.63.6c6.71-4.55,5.74-13.91,4-20.72-1.52-5.91-3.93-12.1-2-18.23a9,9,0,0,1,5-5.6c3.09-1.6,5.35-3.73,6.42-7.1a23,23,0,0,0,.52-9.23c-.37-3.4-.76-7-3.09-9.65s-6.57-3.75-10-4.24a29.07,29.07,0,0,0-11.26.58,29.92,29.92,0,0,0-5.2,1.89"/></g></g></svg>